:SAMPLES-PER-SECOND 30
:FULLY-SPECIFIED
:DEGREES
191
root  -25.0548 34.027 5.65769 -178.615 -19.0413 172.269
RightUpLeg  -37.3448 9.02424 -19.9456
RightLeg  59.6912 5.99881 10.5127
RightFoot  -22.3458 0.360675 5.31277
RightToes  1.45519e-009 0 -3.6325e-017
Spine  29.4931 -2.90228 -0.713617
Spine1  -4.74507 -5.32071 14.9276
HEad  -34.6421 -5.83218 2.88597
LeftShoulder1  0.753145 -0.368559 -12.3482
LeftArm  6.75036 -40.9353 -84.8394
LeftForeArm  10.6849 -66.1054 -25.6824
LeftHand  0.0361023 7.11188 4.66328
RightShoulder  0.0978464 -3.13447 22.1248
RightArm  11.2376 -2.35323 51.6028
RightForeArm  154.335 68.8272 152.91
RightHand  -0.404472 8.27021 -3.80672
LeftUpLeg  -28.3616 15.7334 0.542517
LeftLeg  59.8836 -0.737654 -0.789648
LeftFoot  -26.8011 -0.0808167 -1.78523
LeftToes  -2.53752e-010 -2.07034e-011 -2.70101e-011
192
root  -24.7479 34.2495 6.2128 -176.418 -18.6153 173.003
RightUpLeg  -40.2266 8.56791 -19.4326
RightLeg  57.4626 6.29766 10.0994
RightFoot  -19.9162 0.284392 5.58855
RightToes  1.45519e-009 0 -3.6325e-017
Spine  31.4199 -3.07479 -0.417412
Spine1  -3.84594 -5.5144 14.7348
HEad  -35.8481 -5.24461 3.60658
LeftShoulder1  0.78202 -0.463185 -12.6437
LeftArm  6.08759 -40.4401 -83.7984
LeftForeArm  10.1846 -65.0092 -24.2445
LeftHand  0.0296885 7.13875 4.22119
RightShoulder  0.127069 -3.02806 21.8252
RightArm  11.0636 -3.25379 51.3413
RightForeArm  152.991 69.5396 151.755
RightHand  -0.407999 8.08389 -3.88011
LeftUpLeg  -31.7268 15.826 0.417523
LeftLeg  58.5498 -0.677911 -0.632116
LeftFoot  -25.0289 -0.0889928 -1.99326
LeftToes  -2.53752e-010 -2.07034e-011 -2.70101e-011
193
root  -24.4504 34.4445 6.63934 -174.426 -18.3872 173.555
RightUpLeg  -42.5837 7.81015 -18.8793
RightLeg  55.502 6.63231 9.87203
RightFoot  -17.8078 0.201403 5.6953
RightToes  1.45519e-009 0 -3.6325e-017
Spine  32.9318 -2.96314 -0.573213
Spine1  -3.10682 -5.57677 14.9551
HEad  -36.5744 -5.0848 4.14914
LeftShoulder1  0.7974 -0.539548 -12.6539
LeftArm  6.05911 -39.6815 -83.3701
LeftForeArm  8.52721 -64.0758 -23.2856
LeftHand  0.0481245 7.02026 5.55815
RightShoulder  0.101247 -3.12055 21.9104
RightArm  10.8434 -4.12005 50.5466
RightForeArm  151.48 69.7669 151.217
RightHand  -0.461287 8.27444 -4.29148
LeftUpLeg  -34.5966 16.0886 0.290981
LeftLeg  57.2505 -0.697145 -0.625498
LeftFoot  -23.372 -0.0841393 -2.13012
LeftToes  -2.53752e-010 -2.07034e-011 -2.70101e-011
194
root  -24.179 34.6308 6.96823 -172.842 -18.2249 174.095
RightUpLeg  -44.2812 7.29588 -18.2764
RightLeg  53.5887 6.98456 9.6864
RightFoot  -16.024 0.123083 5.66447
RightToes  1.45519e-009 0 -3.6325e-017
Spine  34.1831 -2.88646 -0.780097
Spine1  -2.33697 -5.70832 15.2061
HEad  -37.0921 -4.8373 4.67802
LeftShoulder1  0.788692 -0.428039 -13.0219
LeftArm  6.06101 -38.9757 -82.9404
LeftForeArm  7.5091 -63.3147 -22.5224
LeftHand  0.0200718 6.74835 4.42495
RightShoulder  0.125791 -3.03478 22.0083
RightArm  10.8377 -4.69655 49.9273
RightForeArm  149.279 70.1595 150.328
RightHand  -0.48134 7.70186 -4.62358
LeftUpLeg  -36.7778 16.4409 0.310544
LeftLeg  55.9393 -0.770978 -0.701515
LeftFoot  -21.8759 -0.0747378 -2.23198
LeftToes  -2.53752e-010 -2.07034e-011 -2.70101e-011
195
root  -23.9491 34.7793 7.23256 -171.722 -18.2764 174.77
RightUpLeg  -45.4508 6.4968 -17.3695
RightLeg  51.9769 7.3554 9.62363
RightFoot  -14.4705 0.0540465 5.56238
RightToes  1.45519e-009 0 -3.6325e-017
Spine  35.749 -2.84271 -0.512531
Spine1  -2.265 -5.64572 15.438
HEad  -37.5413 -4.89456 5.25104
LeftShoulder1  0.804969 -0.482571 -13.1716
LeftArm  6.18781 -38.2077 -82.6578
LeftForeArm  6.99355 -62.7364 -21.9439
LeftHand  0.0270514 7.18363 3.92272
RightShoulder  0.138108 -2.98655 21.7384
RightArm  10.491 -5.71772 49.7363
RightForeArm  149.256 70.2736 150.147
RightHand  -0.464579 7.7271 -4.47002
LeftUpLeg  -38.4845 16.6899 0.611919
LeftLeg  54.9209 -0.906922 -0.880692
LeftFoot  -20.6684 -0.0608125 -2.26721
LeftToes  -2.53752e-010 -2.07034e-011 -2.70101e-011
196
root  -23.7398 34.8995 7.45798 -170.528 -18.1532 175.142
RightUpLeg  -46.6639 5.77639 -16.7417
RightLeg  50.5767 7.74839 9.64726
RightFoot  -13.1659 -0.00347142 5.40568
RightToes  1.45519e-009 0 -3.6325e-017
Spine  36.7164 -2.83471 -0.326507
Spine1  -1.89916 -5.58535 14.9887
HEad  -38.0954 -4.5968 5.77885
LeftShoulder1  0.797804 -0.563096 -12.5382
LeftArm  5.88695 -37.4532 -82.8888
LeftForeArm  6.95736 -62.3668 -21.5595
LeftHand  0.0300027 7.29059 3.94519
RightShoulder  0.0815874 -3.19707 22.663
RightArm  10.9351 -5.98594 48.4827
RightForeArm  148.206 70.1336 150.218
RightHand  -0.553689 7.8217 -5.22119
LeftUpLeg  -40.021 16.526 0.685361
LeftLeg  53.9031 -0.770066 -0.635879
LeftFoot  -19.6082 -0.0551114 -2.38569
LeftToes  -2.53752e-010 -2.07034e-011 -2.70101e-011
197
root  -23.5459 35.0118 7.65564 -169.641 -17.8203 175.75
RightUpLeg  -47.6901 5.49703 -15.9034
RightLeg  49.2082 8.0864 9.59304
RightFoot  -11.8499 -0.0563313 5.39866
RightToes  1.45519e-009 0 -3.6325e-017
Spine  37.7177 -2.73135 0.186229
Spine1  -1.65029 -5.3538 14.6537
HEad  -38.6483 -4.40107 6.66565
LeftShoulder1  0.838161 -0.783598 -12.4637
LeftArm  5.84175 -37.2714 -82.5446
LeftForeArm  6.04236 -61.7759 -21.056
LeftHand  0.031052 7.55057 3.59365
RightShoulder  0.0637962 -3.25811 22.7094
RightArm  10.9468 -6.25848 48.9248
RightForeArm  145.498 70.234 149.685
RightHand  -0.743299 7.46028 -7.05268
LeftUpLeg  -41.2732 16.8027 1.03666
LeftLeg  53.0525 -0.694912 -0.506352
LeftFoot  -18.654 -0.0437781 -2.44078
LeftToes  -2.53752e-010 -2.07034e-011 -2.70101e-011
198
root  -23.3741 35.1258 7.81461 -168.756 -17.5692 176.114
RightUpLeg  -48.5177 5.1002 -15.2823
RightLeg  47.8989 8.49595 9.62951
RightFoot  -10.7417 -0.100868 5.30649
RightToes  1.45519e-009 0 -3.6325e-017
Spine  38.7713 -2.49986 -0.0148138
Spine1  -1.64528 -5.27605 15.0762
HEad  -39.3576 -4.05138 6.76741
LeftShoulder1  0.839456 -0.789589 -12.4681
LeftArm  5.1111 -37.1305 -82.2999
LeftForeArm  6.13382 -61.4877 -20.762
LeftHand  0.0361079 7.61754 3.82575
RightShoulder  0.102623 -3.12291 22.525
RightArm  10.7173 -6.46954 48.4467
RightForeArm  146.714 69.9255 150.331
RightHand  -0.685255 7.65312 -6.48135
LeftUpLeg  -42.3131 16.5453 1.26248
LeftLeg  52.1569 -0.336416 0.0130901
LeftFoot  -17.7552 -0.0496219 -2.78168
LeftToes  -2.53752e-010 -2.07034e-011 -2.70101e-011
199
root  -23.2304 35.2137 7.93015 -167.827 -17.4732 176.357
RightUpLeg  -49.3204 4.50713 -14.757
RightLeg  46.8248 8.88554 9.70338
RightFoot  -9.93626 -0.132541 5.30436
RightToes  1.45519e-009 0 -3.6325e-017
Spine  39.4757 -2.54313 0.138221
Spine1  -1.43869 -5.2797 14.9104
HEad  -40.042 -3.73688 6.83001
LeftShoulder1  0.852101 -0.840037 -12.5394
LeftArm  4.37504 -37.3301 -81.9536
LeftForeArm  6.23684 -61.3428 -20.6114
LeftHand  0.0244295 7.71661 3.31892
RightShoulder  0.122553 -3.05004 22.3393
RightArm  9.89507 -6.4625 48.6938
RightForeArm  150.545 69.4568 151.541
RightHand  -0.497491 8.92097 -4.39807
LeftUpLeg  -43.3391 16.008 1.42863
LeftLeg  51.4376 0.0868521 0.588227
LeftFoot  -16.9872 -0.039371 -2.86214
LeftToes  -2.53752e-010 -2.07034e-011 -2.70101e-011
200
root  -23.0989 35.2842 8.03907 -167.068 -17.2476 176.494
RightUpLeg  -50.0639 4.29799 -14.4433
RightLeg  45.966 9.1635 9.71406
RightFoot  -9.11489 -0.164566 5.27159
RightToes  1.45519e-009 0 -3.6325e-017
Spine  40.1907 -2.12891 -0.220298
Spine1  -1.35454 -5.18324 15.935
HEad  -40.9945 -3.2208 6.10307
LeftShoulder1  0.875886 -0.808459 -13.3041
LeftArm  4.11022 -37.9164 -81.5634
LeftForeArm  5.66791 -61.1115 -20.4503
LeftHand  0.0340265 7.52081 3.90796
RightShoulder  0.156303 -2.91675 21.3807
RightArm  9.34003 -6.61642 49.4861
RightForeArm  151.081 68.9347 152.343
RightHand  -0.504653 8.15985 -4.69597
LeftUpLeg  -44.1386 15.6806 1.51893
LeftLeg  50.7895 0.439813 1.04395
LeftFoot  -16.3332 -0.0306226 -2.9484
LeftToes  -2.53752e-010 -2.07034e-011 -2.70101e-011
201
root  -22.9747 35.3345 8.11747 -166.412 -17.2416 176.652
RightUpLeg  -50.6925 4.21338 -14.1783
RightLeg  45.2764 9.21744 9.54049
RightFoot  -8.44952 -0.191099 5.2948
RightToes  1.45519e-009 0 -3.6325e-017
Spine  40.9033 -2.26666 0.0828498
Spine1  -1.56789 -5.15357 15.593
HEad  -41.6613 -2.75011 6.08642
LeftShoulder1  0.88314 -0.832143 -13.3675
LeftArm  3.79421 -38.2973 -81.1086
LeftForeArm  5.54165 -61.2046 -20.5525
LeftHand  0.0363327 7.47767 3.96263
RightShoulder  0.169639 -2.8786 21.9036
RightArm  9.01335 -5.92372 49.2149
RightForeArm  151.99 68.5343 152.991
RightHand  -0.459723 6.86976 -4.69583
LeftUpLeg  -44.8854 15.3673 1.68334
LeftLeg  50.2791 0.716574 1.38471
LeftFoot  -15.6751 -0.024125 -3.12235
LeftToes  -2.53752e-010 -2.07034e-011 -2.70101e-011
202
root  -22.8779 35.3829 8.17527 -165.753 -17.1214 176.732
RightUpLeg  -51.3431 4.37479 -14.0933
RightLeg  44.6727 9.09635 9.21808
RightFoot  -7.82989 -0.213131 5.21003
RightToes  1.45519e-009 0 -3.6325e-017
Spine  41.3731 -2.11182 0.155656
Spine1  -1.64638 -4.9757 15.7327
HEad  -42.6217 -2.54285 5.71088
LeftShoulder1  0.897406 -0.94062 -13.1725
LeftArm  3.10481 -38.7506 -81.571
LeftForeArm  6.19492 -61.4533 -20.7227
LeftHand  0.0415435 7.61721 4.07648
RightShoulder  0.203822 -2.74927 21.5639
RightArm  8.22434 -5.59267 49.7179
RightForeArm  152.7 67.809 153.998
RightHand  -0.560756 8.39047 -5.09333
LeftUpLeg  -45.5331 15.2274 1.72359
LeftLeg  49.7642 0.93431 1.64
LeftFoot  -15.134 -0.0195441 -3.32592
LeftToes  -2.53752e-010 -2.07034e-011 -2.70101e-011
203
root  -22.8097 35.4025 8.21304 -165.393 -17.1126 176.831
RightUpLeg  -51.7102 4.38203 -13.9449
RightLeg  44.3372 9.07955 9.09419
RightFoot  -7.50763 -0.227121 5.25551
RightToes  1.45519e-009 0 -3.6325e-017
Spine  42.0582 -1.99225 0.338455
Spine1  -2.07608 -4.84926 16.2004
HEad  -43.2395 -2.15511 5.27542
LeftShoulder1  0.915194 -0.981844 -13.4098
LeftArm  2.60181 -38.9877 -81.9086
LeftForeArm  6.69907 -61.711 -20.9203
LeftHand  0.0274562 7.90179 3.03113
RightShoulder  0.237981 -2.6085 20.8634
RightArm  7.71885 -5.50827 50.3695
RightForeArm  154.134 67.0169 155.108
RightHand  -0.609166 8.29087 -5.5544
LeftUpLeg  -45.9595 15.2037 1.8014
LeftLeg  49.5222 0.935498 1.62776
LeftFoot  -14.8387 -0.0146312 -3.39259
LeftToes  -2.53752e-010 -2.07034e-011 -2.70101e-011
